<svg xmlns="http://www.w3.org/2000/svg" viewBox="0 0 131 131"><defs><style>.cls-1,.cls-2,.cls-5{fill:#fff;}.cls-1,.cls-3{opacity:0.24;}.cls-2{opacity:0.2;}.cls-3,.cls-4{fill:none;}.cls-4{stroke:#fff;stroke-miterlimit:10;stroke-width:3px;}</style></defs><title>Humble Monthly</title><g id="Layer_2" data-name="Layer 2"><g id="Layer_1-2" data-name="Layer 1"><path class="cls-1" d="M64.87 1.21a64.21 64.21 0 1 0 64.21 64.21A64.21 64.21 0 0 0 64.87 1.21zm0 97.89a33.68 33.68 0 1 1 33.68-33.68A33.68 33.68 0 0 1 64.87 99.1z"/><path class="cls-2" d="M50.97 60.51h28.67v18.67H50.97z"/><path class="cls-3" d="M65.29 1.29A64.21 64.21 0 1 0 129.5 65.5 64.21 64.21 0 0 0 65.29 1.29zm0 98.18a34 34 0 1 1 34-34 34 34 0 0 1-34 34z"/><circle class="cls-4" cx="65.5" cy="65.5" r="64"/><circle class="cls-4" cx="65.5" cy="65.5" r="33.97"/><path class="cls-5" d="M37.47 98l1.73 2.23-9.86 9.77-2.11-2.72 5.35-5.21-6.3 1.37-1.54-2 2.88-5.78-6.39 3.87-2.11-2.72 11.93-7.1 1.7 2.2-4.25 8.2zM46.06 103.31a7.07 7.07 0 1 1-9.35 3.47 7 7 0 0 1 9.35-3.47zm-4.54 9.78a3.71 3.71 0 1 0-1.74-4.89 3.68 3.68 0 0 0 1.74 4.88zM63.21 107.53l-1.81 13.66-2.89-.38-3.2-8-1 7.45-3.31-.44 1.81-13.66 3 .4 3.11 7.89 1-7.35zM65.2 110.46l-.2-2.91 10.43-.82.23 2.91-3.55.28.85 10.83-3.33.26-.85-10.83zM84 104l3.2-1.15 4.67 13-3.23 1.15-1.82-5-4 1.42 1.82 5-3.14 1.13-4.67-13 3.17-1.13 1.84 5.12 4-1.42zM97.7 112.21l-8.8-10.61 2.6-2.16 6.93 8.36 3.82-3.17 1.86 2.25zM108.58 100.93l-5.31-3.2-9.27.69L96.06 95h5.86l-2.67-5.25 2-3.39 3.76 8.55 5.26 3.17zM58.07 49.51a1.14 1.14 0 0 0-1.21 1.21v3.62a1.21 1.21 0 1 0 2.41 0v-3.62a1.14 1.14 0 0 0-1.2-1.21zm14.46 0a1.14 1.14 0 0 0-1.21 1.21v3.62a1.21 1.21 0 1 0 2.41 0v-3.62a1.14 1.14 0 0 0-1.2-1.21zm-19.28 2.41a3.55 3.55 0 0 0-3.62 3.62v21.69a3.55 3.55 0 0 0 3.62 3.62h24.1A3.55 3.55 0 0 0 81 77.23V55.54a3.55 3.55 0 0 0-3.62-3.62h-2.44v2.41a2.41 2.41 0 0 1-4.82 0v-2.41h-9.64v2.41a2.41 2.41 0 0 1-4.82 0v-2.41zM52 60.36h26.56v16.87a1.14 1.14 0 0 1-1.21 1.21h-24.1A1.14 1.14 0 0 1 52 77.23zm13 4.1l-2.6 1.21.38 1.81 1.92-1v8.21H67V64.47zM29.89 21.59l2.57-2.23 9.12 10.49L38.93 32l-3.52-4-3.17 2.76 3.52 4-2.36 2.35-9.2-10.58 2.52-2.19 3.57 4.1 3.17-2.76zM41.44 24.44l-3.48-8 3-1.48 3.58 8.18a2.08 2.08 0 0 0 3.82-1.65l-3.52-8.16 3.12-1.21 3.48 8a5.44 5.44 0 0 1-10 4.32zM64.73 10.11h2.74l2.64 13.53-3.5-.13-1.28-6.87-2.36 6-2.51.18-3.21-5.61-.31 7-3.45.66.73-14.17 2.44-.3 4.79 8.48zM80.88 18.48a3.2 3.2 0 0 1 2 3.74c-.4 2-2 3.77-5.26 3.1l-5.92-1.19 2.73-13.51 5.53 1.12c2.51.51 3.85 2.29 3.41 4.46a2.8 2.8 0 0 1-2.49 2.28zm-4.8.71l-.55 2.75 2.1.42a1.42 1.42 0 0 0 1.79-1.09 1.4 1.4 0 0 0-1.26-1.66zm2.31-2.33a1.09 1.09 0 0 0 1.36-.86c.14-.71-.06-1.3-.85-1.46l-1.8-.36-.48 2.35zM82 27.31l6.4-12.19 3 1.58-5.08 9.6 4.39 2.32-1.36 2.58zM90.76 32.29l8.66-10.72 7 5.62-1.84 2.27-4.36-3.52L98.53 28l3.83 3.09-1.8 2.22-3.83-3.09-1.53 1.9 4.49 3.63L97.86 38z"/></g></g></svg>