<svg xmlns="http://www.w3.org/2000/svg" xmlns:xlink="http://www.w3.org/1999/xlink" viewBox="0 0 131 131"><defs><style>.cls-1,.cls-5{fill:none;}.cls-1{clip-rule:evenodd;}.cls-2,.cls-3{fill:#fff;}.cls-3,.cls-4{opacity:0.24;}.cls-5{stroke:#fff;stroke-miterlimit:10;}.cls-6{opacity:0.15;}.cls-7{clip-path:url(#clip-path);}.cls-8{clip-path:url(#clip-path-2);}</style><clipPath id="clip-path"><path class="cls-1" d="M75.55,62.72a1.29,1.29,0,1,0,1.29-1.29A1.28,1.28,0,0,0,75.55,62.72ZM73,60.08a1.29,1.29,0,1,0,1.29-1.3A1.29,1.29,0,0,0,73,60.08Zm0,5.22A1.29,1.29,0,1,0,74.27,64,1.29,1.29,0,0,0,73,65.3Zm-2.66-2.65a1.3,1.3,0,1,0,1.3-1.29A1.29,1.29,0,0,0,70.32,62.65ZM57.59,64h2.57V61.37H57.59V58.8H55v2.57H52.45V64H55V66.5h2.58ZM73.66,51.13c6.41.14,9.29,1.32,10.39,7.12a104,104,0,0,1,1.77,17.16c0,3.59-.75,6.49-4.28,6.49-3.25,0-9.05-7.76-11-9.76a12.4,12.4,0,0,0-5.06-1.26A15.67,15.67,0,0,0,60,72.15c-1.94,2-7.74,9.74-11,9.74-3.54,0-4.28-2.89-4.28-6.48a104,104,0,0,1,1.77-17.16c1.14-6,4.2-7.08,11.19-7.15h14.5Z"/></clipPath><clipPath id="clip-path-2"><rect class="cls-2" x="44.76" y="48.54" width="41.07" height="41.07"/></clipPath></defs><title>Asset 3</title><g id="Layer_2" data-name="Layer 2"><g id="Layer_1-2" data-name="Layer 1"><path class="cls-3" d="M65.78,1.29A64.21,64.21,0,1,0,130,65.5,64.21,64.21,0,0,0,65.78,1.29Zm0,97.89A33.68,33.68,0,1,1,99.46,65.5,33.68,33.68,0,0,1,65.78,99.18Z"/><g class="cls-4"><path class="cls-5" d="M65.29,1.29A64.21,64.21,0,1,0,129.5,65.5,64.21,64.21,0,0,0,65.29,1.29Zm0,98.18a34,34,0,1,1,34-34A34,34,0,0,1,65.29,99.47Z"/></g><path class="cls-2" d="M65.5,131A65.5,65.5,0,1,1,131,65.5,65.57,65.57,0,0,1,65.5,131Zm0-128A62.5,62.5,0,1,0,128,65.5,62.57,62.57,0,0,0,65.5,3Z"/><path class="cls-2" d="M65.5,101A35.47,35.47,0,1,1,101,65.5,35.51,35.51,0,0,1,65.5,101ZM65.5,33A32.47,32.47,0,1,0,98,65.5,32.51,32.51,0,0,0,65.5,33Z"/><path class="cls-2" d="M38.46,106.77a3.2,3.2,0,0,1,.08,4.22c-1.22,1.58-3.43,2.5-6.08.44l-4.77-3.7,8.45-10.89,4.45,3.46c2,1.58,2.43,3.76,1.07,5.51A2.79,2.79,0,0,1,38.46,106.77Zm-4.61-1.5-1.72,2.21,1.69,1.31a1.42,1.42,0,0,0,2.09-.17,1.4,1.4,0,0,0-.39-2.05Zm3.1-1.06a1.2,1.2,0,0,0,1.5-1.87L37,101.21l-1.47,1.9Z"/><path class="cls-2" d="M42.2,111.73l2.71-8.33,3.19,1-2.7,8.33a2.08,2.08,0,0,0,4,1.28l2.71-8.32,3.19,1-2.71,8.33a5.44,5.44,0,0,1-10.34-3.36Z"/><path class="cls-2" d="M67.67,107.51,67,121.27l-2.92-.15-3.83-7.72-.38,7.51-3.34-.17.7-13.76,3,.15L64,114.75l.38-7.41Z"/><path class="cls-2" d="M69.55,107.49l5.38-.94c3.92-.68,6.68,1.88,7.35,5.74s-1.07,7.15-5,7.83l-5.37.94Zm5.16,10.06,2.07-.36c1.91-.33,2.56-2.33,2.21-4.32s-1.64-3.72-3.55-3.38l-2.07.36Z"/><path class="cls-2" d="M87.4,117.55,81.63,105l3.07-1.42,4.55,9.86,4.5-2.07L95,114.06Z"/><path class="cls-2" d="M97.18,112.63,88.39,102l6.89-5.7,1.86,2.25-4.31,3.57,1.68,2L98.3,101l1.82,2.2-3.78,3.14,1.55,1.87,4.45-3.68,1.86,2.25Z"/><g class="cls-6"><rect x="51.5" y="56.9" width="29" height="11.56"/></g><g class="cls-7"><rect class="cls-2" x="44.76" y="48.54" width="41.07" height="41.07"/><g class="cls-8"><rect class="cls-2" x="32.43" y="38.77" width="65.73" height="55.46"/><path class="cls-2" d="M97.65,39.27V93.73H32.93V39.27H97.65m1-1H31.93V94.73H98.65V38.27Z"/></g></g><path class="cls-2" d="M38,21.53a3.77,3.77,0,0,0-3.22.36,3.83,3.83,0,0,0-1,5.36,3.88,3.88,0,0,0,5.3,1.37c1.37-.88,2.11-2,1.66-3.26L37.5,27.45,36.05,25.2l6.3-4.06c2.86,4.44,1.71,7.89-1.62,10a7.07,7.07,0,1,1-7.66-11.89,6.87,6.87,0,0,1,5.85-.87Z"/><path class="cls-2" d="M53.51,22.19,49.25,23l-.53,3.33L45.2,27l2.35-14.5,3.58-.7,7.6,12.56-3.47.68ZM49.58,20l2.54-.49-2.19-4.2Z"/><path class="cls-2" d="M71.37,10l2.82,0,1.53,14.25-3.44,0-.76-7.88-2.85,5.79-2.52,0-2.73-5.85-1,7.77L59,24,60.89,9.88l2.78,0,3.79,8.43Z"/><path class="cls-2" d="M76.85,24.71l5-12.83,8.32,3.26-1.06,2.72-5.22-2-1,2.46,4.58,1.79-1,2.66-4.58-1.79L81,23.21l5.38,2.11L85.35,28Z"/><path class="cls-2" d="M91.28,27.58c-.34.66-.21,1.43.8,2,.74.43,1.66.52,2.09-.22.11-.19.34-.59-.62-1.68l-1.13-1.28c-2.24-2.27-1.71-4.23-1.08-5.32,1.27-2.18,3.9-2.61,6.29-1.23s3.31,3.75,1.94,6.1l-2.89-1.67a1.23,1.23,0,0,0-.6-1.83c-.78-.46-1.48-.36-1.82.21-.13.23-.31.7.55,1.61l1.11,1.23c2.57,2.79,1.69,4.7,1.2,5.55-1.53,2.63-4.52,2.24-6.52,1.07-2.66-1.55-3.55-4-2.24-6.25Z"/></g></g></svg>