<svg xmlns="http://www.w3.org/2000/svg" viewBox="0 0 131 131"><defs><style>.cls-1,.cls-4{fill:#fff;}.cls-1,.cls-2{opacity:0.24;}.cls-3{fill:none;}</style></defs><title>Asset 6</title><g id="Layer_2" data-name="Layer 2"><g id="Layer_1-2" data-name="Layer 1"><path class="cls-1" d="M65.66,1.29A64.21,64.21,0,1,0,129.87,65.5,64.21,64.21,0,0,0,65.66,1.29Zm0,97.89A33.68,33.68,0,1,1,99.34,65.5,33.68,33.68,0,0,1,65.66,99.18Z"/><g class="cls-2"><path class="cls-3" d="M65.29,1.29A64.21,64.21,0,1,0,129.5,65.5,64.21,64.21,0,0,0,65.29,1.29Zm0,98.18a34,34,0,1,1,34-34A34,34,0,0,1,65.29,99.47Z"/></g><path class="cls-4" d="M65.5,131A65.5,65.5,0,1,1,131,65.5,65.57,65.57,0,0,1,65.5,131Zm0-128A62.5,62.5,0,1,0,128,65.5,62.57,62.57,0,0,0,65.5,3Z"/><path class="cls-4" d="M65.5,101A35.47,35.47,0,1,1,101,65.5,35.51,35.51,0,0,1,65.5,101ZM65.5,33A32.47,32.47,0,1,0,98,65.5,32.51,32.51,0,0,0,65.5,33Z"/><path class="cls-4" d="M39.59,23.89A3.2,3.2,0,0,1,43.67,25c1.17,1.62,1.43,4-1.3,6l-4.9,3.53L29.41,23.31,34,20c2.08-1.5,4.29-1.27,5.59.54A2.78,2.78,0,0,1,39.59,23.89Zm-2.88.72a1.2,1.2,0,0,0-1.37-2l-1.49,1.07,1.4,1.95Zm.14,3.27,1.64,2.28,1.74-1.25a1.44,1.44,0,0,0,.42-2.06,1.4,1.4,0,0,0-2.08-.2Z"/><path class="cls-4" d="M49.35,12.46a7.07,7.07,0,1,1-4.81,8.73A7,7,0,0,1,49.35,12.46Zm3,10.36a3.71,3.71,0,1,0-4.52-2.55A3.67,3.67,0,0,0,52.31,22.82Z"/><path class="cls-4" d="M67.34,10A7.07,7.07,0,1,1,60.18,17,7,7,0,0,1,67.34,10Zm-.21,10.78A3.71,3.71,0,1,0,63.56,17,3.67,3.67,0,0,0,67.13,20.79Z"/><path class="cls-4" d="M85,27.87l-3.75-1.2-2-4.86-1.27,4-3.15-1,4.18-13,3.15,1-1.2,3.71,3.78-2.88,3.67,1.18-6.67,4.93Z"/><path class="cls-4" d="M90.27,26.93c-.35.66-.24,1.43.76,2,.73.45,1.65.55,2.09-.18.12-.19.36-.58-.59-1.69l-1.1-1.3c-2.2-2.32-1.63-4.27-1-5.34,1.31-2.16,4-2.55,6.31-1.12s3.24,3.81,1.83,6.14l-2.86-1.73a1.22,1.22,0,0,0-.57-1.84c-.77-.47-1.47-.38-1.82.18-.13.23-.32.69.52,1.62L95,25c2.52,2.84,1.6,4.74,1.09,5.57-1.57,2.61-4.55,2.16-6.54.95-2.63-1.59-3.47-4.07-2.13-6.29Z"/><path class="cls-4" d="M38.46,106.77a3.2,3.2,0,0,1,.08,4.22c-1.22,1.58-3.43,2.5-6.08.44l-4.77-3.7,8.45-10.89,4.45,3.46c2,1.57,2.43,3.76,1.07,5.51A2.79,2.79,0,0,1,38.46,106.77Zm-4.61-1.5-1.72,2.21,1.69,1.31a1.42,1.42,0,0,0,2.09-.17,1.4,1.4,0,0,0-.39-2.05Zm3.1-1.06a1.2,1.2,0,0,0,1.51-1.87L37,101.21l-1.47,1.9Z"/><path class="cls-4" d="M42.2,111.73l2.71-8.33,3.19,1-2.7,8.33a2.08,2.08,0,0,0,4,1.28l2.71-8.32,3.19,1-2.7,8.33a5.45,5.45,0,0,1-10.35-3.36Z"/><path class="cls-4" d="M67.67,107.51,67,121.27l-2.92-.15-3.83-7.72-.38,7.51-3.34-.17.7-13.76,3,.15L64,114.75l.38-7.41Z"/><path class="cls-4" d="M69.55,107.49l5.38-.94c3.92-.68,6.68,1.88,7.35,5.74s-1.07,7.15-5,7.83l-5.37.94Zm5.16,10.06,2.07-.36c1.91-.33,2.56-2.33,2.21-4.32s-1.64-3.72-3.55-3.38l-2.07.36Z"/><path class="cls-4" d="M87.4,117.55,81.63,105l3.07-1.42,4.55,9.86,4.5-2.08L95,114.06Z"/><path class="cls-4" d="M97.18,112.63,88.39,102l6.89-5.7,1.86,2.25-4.31,3.57,1.68,2L98.3,101l1.82,2.2-3.78,3.14,1.55,1.87,4.45-3.68,1.86,2.24Z"/><g id="icons"><g id="book"><g id="hb-book"><path class="cls-4" d="M66.67,82.28V56.17s9.41-6.3,14.69-6.3c0,0,0,26.81,0,26.8C76,76.67,66.67,82.28,66.67,82.28Zm-2.72,0s-9.29-5.61-14.69-5.61c0,0,0-26.8,0-26.8,5.28,0,14.69,6.3,14.69,6.3Z"/></g></g></g></g></g></svg>